<?xml version="1.0" standalone="no"?>
<!DOCTYPE svg PUBLIC "-//W3C//DTD SVG 20010904//EN"
 "http://www.w3.org/TR/2001/REC-SVG-20010904/DTD/svg10.dtd">
<svg version="1.0" xmlns="http://www.w3.org/2000/svg"
 width="512.000000pt" height="512.000000pt" viewBox="0 0 512.000000 512.000000"
 preserveAspectRatio="xMidYMid meet">
<metadata>
Created by potrace 1.11, written by Peter Selinger 2001-2013
</metadata>
<g transform="translate(0.000000,512.000000) scale(0.100000,-0.100000)"
fill="#000000" stroke="none">
<path d="M2336 4269 c-16 -5 -33 -6 -37 -3 -4 2 -11 -1 -16 -8 -4 -7 -12 -13
-18 -14 -19 -1 -82 -33 -95 -48 -7 -9 -19 -16 -27 -16 -8 0 -12 -4 -8 -9 3 -5
-5 -13 -17 -17 -20 -6 -77 -60 -133 -126 -22 -26 -26 -34 -33 -60 -2 -10 -8
-16 -12 -13 -7 4 -19 -21 -24 -48 0 -4 -8 -12 -16 -17 -8 -5 -12 -10 -8 -10 4
0 -1 -19 -10 -42 -10 -24 -17 -53 -16 -65 1 -13 -4 -23 -11 -23 -12 0 -13 -3
-21 -148 -5 -70 -3 -97 7 -109 12 -14 12 -16 -1 -8 -12 7 -13 6 -4 -6 5 -8 10
-21 9 -29 0 -8 3 -17 7 -20 11 -9 22 -71 12 -69 -14 3 -44 -12 -40 -20 3 -4
-11 -20 -30 -36 -19 -16 -34 -35 -34 -43 0 -9 -3 -12 -7 -9 -6 7 -30 -20 -32
-36 0 -4 -12 -18 -26 -32 -15 -13 -26 -26 -27 -29 0 -21 -12 -45 -19 -40 -5 3
-9 -4 -9 -15 0 -12 -5 -21 -11 -21 -6 0 -9 -9 -6 -19 3 -12 -1 -22 -10 -25 -8
-3 -12 -10 -8 -15 3 -5 1 -12 -5 -16 -5 -3 -10 -17 -10 -31 0 -14 -4 -23 -8
-20 -4 2 -7 -11 -7 -30 1 -19 -3 -34 -8 -34 -6 0 -8 -3 -4 -6 9 -9 -19 -34
-38 -34 -9 0 -14 -4 -10 -9 3 -5 -4 -12 -15 -16 -11 -4 -18 -10 -15 -15 3 -5
-4 -14 -15 -20 -11 -6 -18 -15 -15 -19 3 -5 -2 -11 -9 -14 -16 -6 -18 -16 -17
-87 0 -63 4 -90 16 -98 6 -4 16 -19 24 -34 8 -16 21 -28 30 -28 28 -1 46 -24
48 -60 7 -121 9 -140 15 -140 4 0 4 -7 1 -17 -4 -9 -2 -14 3 -10 5 3 10 -11
10 -31 1 -21 5 -57 9 -82 4 -25 8 -51 8 -57 0 -7 3 -13 7 -13 3 0 7 -10 7 -22
2 -24 10 -63 14 -63 1 0 2 -12 3 -27 1 -15 5 -30 9 -34 4 -4 7 -18 7 -30 0
-13 4 -25 9 -28 7 -5 20 -60 25 -108 1 -3 4 -10 9 -14 4 -4 7 -20 7 -35 0 -15
4 -29 9 -31 5 -1 10 -16 12 -33 2 -16 7 -36 12 -42 5 -7 7 -13 3 -13 -3 0 0
-15 8 -34 8 -19 12 -37 9 -40 -3 -3 0 -13 8 -22 8 -10 13 -19 11 -21 -2 -2 0
-17 3 -34 6 -25 3 -36 -16 -54 -43 -40 -77 -82 -84 -104 -3 -11 -11 -21 -16
-21 -5 0 -9 -9 -9 -21 0 -11 -4 -18 -9 -15 -5 4 -7 -3 -4 -14 5 -17 1 -19 -30
-17 -20 2 -34 0 -31 -5 3 -4 -11 -8 -30 -8 -19 0 -38 -4 -41 -10 -3 -5 -14
-10 -25 -10 -10 0 -21 -7 -24 -16 -3 -8 -10 -13 -15 -9 -11 6 -91 -69 -91 -86
0 -6 -7 -8 -16 -5 -8 3 -12 2 -9 -4 3 -5 -1 -20 -10 -33 -8 -13 -12 -27 -8
-30 3 -4 2 -7 -4 -7 -12 0 -24 -38 -28 -87 -1 -17 -5 -36 -9 -41 -3 -6 -2 -14
4 -17 8 -5 7 -11 -1 -22 -8 -9 -9 -17 -3 -21 5 -4 10 -20 11 -37 1 -16 4 -39
6 -50 3 -11 6 -24 6 -28 1 -5 6 -5 11 -2 5 3 10 -3 10 -14 0 -12 4 -21 8 -21
5 0 15 -11 22 -25 7 -14 19 -25 25 -25 6 0 24 -13 40 -30 l28 -29 -1 -138 c-1
-162 -2 -170 -29 -240 -3 -10 -6 -28 -6 -41 0 -12 -4 -22 -8 -22 -5 0 -9 -7
-9 -15 0 -8 -9 -30 -20 -50 -11 -20 -20 -38 -20 -40 0 -3 509 -5 1131 -5 895
0 1129 3 1122 13 -7 10 -9 32 -4 47 7 19 7 71 0 75 -4 3 -4 16 0 28 6 14 5 31
-1 43 -8 13 -8 16 0 9 16 -15 51 -102 45 -109 -4 -3 -1 -6 5 -6 7 0 12 -6 12
-14 0 -8 7 -22 16 -30 8 -9 12 -16 8 -16 -4 0 1 -9 11 -20 17 -19 31 -20 212
-20 126 0 193 4 193 10 0 6 -7 13 -15 16 -8 4 -13 10 -10 14 3 5 -3 13 -12 19
-10 6 -12 11 -5 11 7 0 4 8 -8 20 -11 11 -20 27 -20 35 0 8 -4 15 -9 15 -5 0
-12 14 -16 30 -4 17 -11 28 -16 24 -5 -3 -9 3 -9 13 0 11 -6 25 -12 32 -10 11
-10 12 -1 7 9 -5 11 -2 7 8 -3 9 -9 16 -13 16 -7 0 -9 7 -13 49 -1 11 -6 17
-10 15 -4 -3 -9 2 -9 10 -2 19 -4 26 -13 48 -4 9 -5 22 -1 28 4 6 1 9 -6 8 -7
-2 -14 6 -16 17 -1 11 -4 34 -7 50 -2 17 -5 40 -5 53 -1 16 -5 21 -13 16 -9
-5 -9 -2 1 9 9 11 10 17 2 17 -6 0 -11 8 -11 17 0 9 3 14 6 11 7 -8 44 28 44
44 0 6 3 9 6 5 7 -7 44 24 39 34 -3 4 2 12 10 19 8 7 15 21 15 31 0 11 4 19 9
19 10 0 24 45 24 78 0 12 4 22 10 22 5 0 3 8 -4 17 -8 9 -9 14 -3 10 7 -4 15
0 18 8 3 9 -1 18 -9 21 -8 4 -12 10 -9 15 3 5 11 6 17 2 7 -4 7 0 -1 10 -8 9
-15 26 -17 39 -8 62 -17 91 -35 110 -10 11 -16 26 -14 32 3 7 -7 22 -21 34
-15 13 -23 28 -19 35 4 7 4 9 -1 5 -4 -4 -34 17 -67 47 -33 30 -68 55 -79 55
-11 0 -17 5 -14 10 3 6 -3 10 -14 10 -12 0 -21 4 -21 9 0 6 -9 8 -20 6 -12 -2
-23 2 -26 9 -3 7 -15 12 -27 12 -12 -1 -27 2 -34 6 -6 5 -14 5 -17 -1 -4 -6
-18 -6 -35 -1 -19 5 -33 4 -40 -3 -8 -8 -11 -6 -11 6 0 24 -39 96 -59 107 -12
7 -13 9 -2 10 19 0 -48 60 -66 60 -8 0 -12 4 -9 9 3 4 -6 13 -20 20 -14 6 -23
15 -19 20 3 5 1 13 -5 16 -8 5 -7 11 1 21 6 8 7 14 2 14 -5 0 -9 36 -8 79 0
47 -3 77 -9 74 -5 -4 -7 1 -3 10 4 10 1 17 -6 17 -8 0 -6 4 3 10 8 5 10 10 4
10 -7 0 -10 14 -8 36 2 20 -2 46 -7 57 -8 14 -8 18 0 13 6 -4 11 -2 11 3 0 6
-3 11 -7 11 -5 0 -9 48 -11 107 -2 59 -7 114 -11 123 -8 19 -8 42 3 58 4 7 4
18 -2 25 -5 7 -10 68 -11 136 -1 68 -6 132 -12 143 -9 16 -8 19 2 13 9 -6 10
-3 5 11 -5 10 -9 49 -10 87 0 37 -3 67 -7 67 -3 0 -6 28 -7 62 0 33 -5 64 -10
67 -9 6 -20 63 -24 128 -1 17 -7 31 -12 30 -6 -1 -10 5 -11 13 -1 30 -28 125
-37 131 -6 4 -11 18 -11 32 -1 14 -5 23 -9 20 -5 -2 -8 5 -8 17 0 12 -4 18
-10 15 -5 -3 -10 3 -10 14 0 12 -5 21 -11 21 -5 0 -7 5 -4 10 3 6 2 10 -4 10
-5 0 -13 10 -17 22 -7 24 -16 36 -56 79 -16 15 -28 33 -28 39 0 5 -5 10 -11
10 -7 0 -25 13 -40 30 -16 16 -32 30 -37 30 -4 0 -15 7 -24 15 -10 8 -18 12
-18 9 0 -4 -7 0 -16 7 -22 18 -86 39 -97 32 -6 -3 -7 -1 -3 5 4 7 1 12 -6 12
-9 0 -9 3 2 10 8 5 15 13 16 17 9 75 18 112 28 106 6 -4 5 0 -2 9 -10 12 -10
18 -1 23 8 6 7 10 -2 16 -8 5 -9 9 -3 9 7 0 10 21 8 58 -1 31 -3 57 -4 57 -1
0 -4 16 -6 35 -7 54 -24 100 -37 100 -7 0 -6 4 3 10 9 6 10 10 3 10 -6 0 -15
10 -18 23 -4 12 -17 32 -28 45 -11 12 -17 22 -13 22 3 0 -6 12 -22 28 -31 30
-106 72 -129 72 -8 0 -11 5 -7 11 5 8 -3 10 -25 7 -17 -2 -31 -2 -31 1 0 9
-81 8 -114 0z"/>
</g>
</svg>
